ply
format ascii 1.0
element vertex 92
property float x
property float y
property float z
property float red
property float green
property float blue
property float alpha
end_header
0.5 0 2 1 0 0 1
0.48 0.14 2 1 0 0 1
0.46 0.27 2 1 0 0 1
0.43 0.38 2 1 0 0 1
0.39 0.48 2 1 0 0 1
0.33 0.55 2 1 0 0 1
0.27 0.6 2 1 0 0 1
0.19 0.65 2 1 0 0 1
0.1 0.68 2 1 0 0 1
0 0.7 2 1 0 0 1
-0.1 0.68 2 1 0 0 1
-0.19 0.65 2 1 0 0 1
-0.27 0.6 2 1 0 0 1
-0.33 0.55 2 1 0 0 1
-0.39 0.48 2 1 0 0 1
-0.43 0.38 2 1 0 0 1
-0.46 0.27 2 1 0 0 1
-0.48 0.14 2 1 0 0 1
-0.5 0 2 1 0 0 1
-0.48 -0.14 2 1 0 0 1
-0.46 -0.27 2 1 0 0 1
-0.43 -0.38 2 1 0 0 1
-0.39 -0.48 2 1 0 0 1
-0.33 -0.55 2 1 0 0 1
-0.27 -0.6 2 1 0 0 1
-0.19 -0.65 2 1 0 0 1
-0.1 -0.68 2 1 0 0 1
0 -0.7 2 1 0 0 1
0.1 -0.68 2 1 0 0 1
0.19 -0.65 2 1 0 0 1
0.27 -0.6 2 1 0 0 1
0.33 -0.55 2 1 0 0 1
0.39 -0.48 2 1 0 0 1
0.43 -0.38 2 1 0 0 1
0.46 -0.27 2 1 0 0 1
0.48 -0.14 2 1 0 0 1
0.5 0 2 1 0 0 1
0.48 0.14 2 1 0 0 1
0.46 0.27 2 1 0 0 1
0.43 0.38 2 1 0 0 1
0.39 0.48 2 1 0 0 1
0.33 0.55 2 1 0 0 1
0.27 0.6 2 1 0 0 1
0.19 0.65 2 1 0 0 1
0.1 0.68 2 1 0 0 1
0 0.7 2 1 0 0 1
1.5 0 2 0 0 1 1
1.48 0.14 2 0 0 1 1
1.46 0.27 2 0 0 1 1
1.43 0.38 2 0 0 1 1
1.39 0.48 2 0 0 1 1
1.33 0.55 2 0 0 1 1
1.27 0.6 2 0 0 1 1
1.19 0.65 2 0 0 1 1
1.1 0.68 2 0 0 1 1
1 0.7 2 0 0 1 1
0.9 0.68 2 0 0 1 1
0.81 0.65 2 0 0 1 1
0.73 0.6 2 0 0 1 1
0.67 0.55 2 0 0 1 1
0.61 0.48 2 0 0 1 1
0.57 0.38 2 0 0 1 1
0.54 0.27 2 0 0 1 1
0.52 0.14 2 0 0 1 1
0.5 0 2 0 0 1 1
0.52 -0.14 2 0 0 1 1
0.54 -0.27 2 0 0 1 1
0.57 -0.38 2 0 0 1 1
0.61 -0.48 2 0 0 1 1
0.67 -0.55 2 0 0 1 1
0.73 -0.6 2 0 0 1 1
0.81 -0.65 2 0 0 1 1
0.9 -0.68 2 0 0 1 1
1 -0.7 2 0 0 1 1
1.1 -0.68 2 0 0 1 1
1.19 -0.65 2 0 0 1 1
1.27 -0.6 2 0 0 1 1
1.33 -0.55 2 0 0 1 1
1.39 -0.48 2 0 0 1 1
1.43 -0.38 2 0 0 1 1
1.46 -0.27 2 0 0 1 1
1.48 -0.14 2 0 0 1 1
1.5 0 2 0 0 1 1
1.48 0.14 2 0 0 1 1
1.46 0.27 2 0 0 1 1
1.43 0.38 2 0 0 1 1
1.39 0.48 2 0 0 1 1
1.33 0.55 2 0 0 1 1
1.27 0.6 2 0 0 1 1
1.19 0.65 2 0 0 1 1
1.1 0.68 2 0 0 1 1
1 0.7 2 0 0 1 1
